<svg width="539" height="97" viewBox="0 0 539 97" fill="none" xmlns="http://www.w3.org/2000/svg">
<g clip-path="url(#clip0)">
<g filter="url(#filter0_d)">
<path d="M107.46 76.72C102.78 76.72 98.736 75.652 95.328 73.516C91.92 71.38 89.28 68.332 87.408 64.372C85.56 60.388 84.636 55.636 84.636 50.116C84.636 44.548 85.596 39.76 87.516 35.752C89.436 31.72 92.136 28.624 95.616 26.464C99.12 24.304 103.224 23.224 107.928 23.224C110.808 23.224 113.46 23.704 115.884 24.664C118.332 25.624 120.468 26.932 122.292 28.588C124.14 30.22 125.592 32.08 126.648 34.168C127.704 36.232 128.292 38.392 128.412 40.648H119.16C118.824 38.872 118.14 37.24 117.108 35.752C116.1 34.24 114.792 33.028 113.184 32.116C111.6 31.204 109.788 30.748 107.748 30.748C105.108 30.748 102.768 31.408 100.728 32.728C98.688 34.048 97.08 36.124 95.904 38.956C94.752 41.764 94.176 45.412 94.176 49.9C94.176 54.652 94.812 58.42 96.084 61.204C97.356 63.964 99.036 65.944 101.124 67.144C103.236 68.344 105.552 68.944 108.072 68.944C110.496 68.944 112.548 68.416 114.228 67.36C115.908 66.28 117.192 64.972 118.08 63.436C118.992 61.876 119.52 60.364 119.664 58.9L119.988 55.084H108.36V48.892L129.132 48.964V76H122.94V68.692C122.028 70.012 120.9 71.296 119.556 72.544C118.212 73.768 116.556 74.776 114.588 75.568C112.62 76.336 110.244 76.72 107.46 76.72ZM141.089 76V23.944H175.505L175.469 31.468H149.909V46.048H172.481V53.464H149.837V68.368L176.009 68.404V76H141.089ZM206.895 76.72C202.095 76.72 197.943 75.664 194.439 73.552C190.959 71.44 188.259 68.404 186.339 64.444C184.443 60.46 183.495 55.672 183.495 50.08C183.495 44.464 184.455 39.652 186.375 35.644C188.295 31.636 191.007 28.564 194.511 26.428C198.015 24.292 202.143 23.224 206.895 23.224C211.623 23.224 215.715 24.292 219.171 26.428C222.651 28.564 225.339 31.636 227.235 35.644C229.131 39.652 230.079 44.464 230.079 50.08C230.079 55.648 229.143 60.424 227.271 64.408C225.399 68.368 222.723 71.416 219.243 73.552C215.763 75.664 211.647 76.72 206.895 76.72ZM206.895 69.376C211.167 69.376 214.503 67.864 216.903 64.84C219.327 61.792 220.539 56.908 220.539 50.188C220.539 43.348 219.315 38.368 216.867 35.248C214.443 32.128 211.119 30.568 206.895 30.568C202.671 30.568 199.311 32.14 196.815 35.284C194.343 38.404 193.107 43.372 193.107 50.188C193.107 56.932 194.343 61.816 196.815 64.84C199.311 67.864 202.671 69.376 206.895 69.376ZM278.971 76H269.827L260.863 54.868H248.767V76H240.019V23.944H261.151C267.127 23.944 271.531 25.312 274.363 28.048C277.195 30.76 278.611 34.372 278.611 38.884C278.611 41.668 278.155 44.008 277.243 45.904C276.331 47.776 275.143 49.312 273.679 50.512C272.239 51.688 270.691 52.648 269.035 53.392L278.971 76ZM259.171 47.92C262.483 47.92 265.063 47.152 266.911 45.616C268.783 44.08 269.719 41.944 269.719 39.208C269.719 36.52 268.855 34.444 267.127 32.98C265.399 31.516 263.119 30.784 260.287 30.784H248.767V47.92H259.171ZM289.448 23.944H298.196V76H289.448V23.944ZM331.559 76.72C326.759 76.72 322.607 75.664 319.103 73.552C315.623 71.44 312.923 68.404 311.003 64.444C309.107 60.46 308.159 55.672 308.159 50.08C308.159 44.464 309.119 39.652 311.039 35.644C312.959 31.636 315.671 28.564 319.175 26.428C322.679 24.292 326.807 23.224 331.559 23.224C336.287 23.224 340.379 24.292 343.835 26.428C347.315 28.564 350.003 31.636 351.899 35.644C353.795 39.652 354.743 44.464 354.743 50.08C354.743 55.648 353.807 60.424 351.935 64.408C350.063 68.368 347.387 71.416 343.907 73.552C340.427 75.664 336.311 76.72 331.559 76.72ZM331.559 69.376C335.831 69.376 339.167 67.864 341.567 64.84C343.991 61.792 345.203 56.908 345.203 50.188C345.203 43.348 343.979 38.368 341.531 35.248C339.107 32.128 335.783 30.568 331.559 30.568C327.335 30.568 323.975 32.14 321.479 35.284C319.007 38.404 317.771 43.372 317.771 50.188C317.771 56.932 319.007 61.816 321.479 64.84C323.975 67.864 327.335 69.376 331.559 69.376ZM364.683 76V23.944H377.211L390.855 63.724L404.643 23.944H417.099V76H408.207V35.176L394.491 76H387.183L373.575 35.428V76H364.683ZM425.87 76L444.59 23.944H454.058L472.742 76H463.958L459.314 62.932H439.442L434.69 76H425.87ZM441.458 55.156H457.154L449.342 32.476L441.458 55.156ZM520.424 76H511.28L502.316 54.868H490.22V76H481.472V23.944H502.604C508.58 23.944 512.984 25.312 515.816 28.048C518.648 30.76 520.064 34.372 520.064 38.884C520.064 41.668 519.608 44.008 518.696 45.904C517.784 47.776 516.596 49.312 515.132 50.512C513.692 51.688 512.144 52.648 510.488 53.392L520.424 76ZM500.624 47.92C503.936 47.92 506.516 47.152 508.364 45.616C510.236 44.08 511.172 41.944 511.172 39.208C511.172 36.52 510.308 34.444 508.58 32.98C506.852 31.516 504.572 30.784 501.74 30.784H490.22V47.92H500.624Z" fill="white"/>
</g>
<ellipse cx="42.5" cy="50.5" rx="31.5" ry="30.5" fill="#FF5C00"/>
<circle cx="42.5" cy="50.5" r="20.5" fill="white"/>
<path d="M47 33C71.75 50.68 47 67 47 67V33Z" fill="#FF5C00"/>
</g>
<defs>
<filter id="filter0_d" x="80.636" y="23.224" width="443.788" height="61.496" filterUnits="userSpaceOnUse" color-interpolation-filters="sRGB">
<feFlood flood-opacity="0" result="BackgroundImageFix"/>
<feColorMatrix in="SourceAlpha" type="matrix" values="0 0 0 0 0 0 0 0 0 0 0 0 0 0 0 0 0 0 127 0"/>
<feOffset dy="4"/>
<feGaussianBlur stdDeviation="2"/>
<feColorMatrix type="matrix" values="0 0 0 0 0 0 0 0 0 0 0 0 0 0 0 0 0 0 0.25 0"/>
<feBlend mode="normal" in2="BackgroundImageFix" result="effect1_dropShadow"/>
<feBlend mode="normal" in="SourceGraphic" in2="effect1_dropShadow" result="shape"/>
</filter>
<clipPath id="clip0">
<rect width="539" height="97" fill="white"/>
</clipPath>
</defs>
</svg>
